<svg width="1400" height="230" viewBox="0 0 1400 230" fill="none" xmlns="http://www.w3.org/2000/svg">
<path d="M1151.48 131.56L1240.89 79.06L1334.26 132.96L1244.93 186.2L1151.48 131.56Z" fill="#E9E9E9"/>
<g opacity="0.5">
<path opacity="0.5" d="M971.199 115.11L992.399 127.35L1013.6 115.11L992.399 102.87L971.199 115.11Z" stroke="#6D0F3F" stroke-linecap="round" stroke-linejoin="round"/>
<path opacity="0.5" d="M1002.97 121.25L1055.75 151.6L1243.33 42.94L1291.58 70.7" stroke="#6D0F3F" stroke-linecap="round" stroke-linejoin="round" stroke-dasharray="2.93 2.93"/>
<path opacity="0.5" d="M1279.93 77.42L1301.13 89.66L1322.33 77.42L1301.13 65.19L1279.93 77.42Z" stroke="#6D0F3F" stroke-linecap="round" stroke-linejoin="round"/>
</g>
<g opacity="0.5">
<path opacity="0.5" d="M591.57 194.13L612.77 181.89L633.97 194.13L612.77 206.37L591.57 194.13Z" stroke="#6D0F3F" stroke-linecap="round" stroke-linejoin="round"/>
<path opacity="0.5" d="M755.102 178.57L776.292 166.33L797.492 178.57L776.292 190.81L755.102 178.57Z" stroke="#6D0F3F" stroke-linecap="round" stroke-linejoin="round"/>
<path opacity="0.5" d="M766.312 172.1L708.812 136.17L623.332 187.99" stroke="#6D0F3F" stroke-linecap="round" stroke-linejoin="round" stroke-dasharray="2.93 2.93"/>
</g>
<path opacity="0.3" d="M566.398 54.65L578.588 47.61L590.768 54.65L578.588 61.68L566.398 54.65Z" fill="#6D0F3F"/>
<path opacity="0.3" d="M587.59 67.3L599.77 60.26L611.96 67.3L599.77 74.33L587.59 67.3Z" fill="#6D0F3F"/>
<path opacity="0.3" d="M545.211 42.11L557.391 35.08L569.581 42.11L557.391 49.15L545.211 42.11Z" fill="#6D0F3F"/>
<path opacity="0.3" d="M524.02 29.57L536.2 22.54L548.39 29.57L536.2 36.61L524.02 29.57Z" fill="#6D0F3F"/>
<path opacity="0.3" d="M225.498 53.5928L214.309 47.1397L225.498 40.6775L236.679 47.1397L225.498 53.5928Z" fill="#6D0F3F" stroke="#6D0F3F"/>
<path opacity="0.3" d="M183.12 53.1228L171.93 46.6697L183.12 40.2075L194.3 46.6697L183.12 53.1228Z" fill="#6D0F3F" stroke="#6D0F3F"/>
<path opacity="0.3" d="M204.311 41.0625L193.121 34.6003L204.311 28.1472L215.491 34.6003L204.311 41.0625Z" fill="#6D0F3F" stroke="#6D0F3F"/>
<path opacity="0.3" d="M1130.2 155.96L1142.38 148.93L1154.56 155.96L1142.38 163L1130.2 155.96Z" fill="#6D0F3F"/>
<path opacity="0.3" d="M1087.82 155.49L1100 148.46L1112.18 155.49L1100 162.53L1087.82 155.49Z" fill="#6D0F3F"/>
<path opacity="0.3" d="M1109.01 143.43L1121.19 136.39L1133.37 143.43L1121.19 150.46L1109.01 143.43Z" fill="#6D0F3F"/>
<path opacity="0.3" d="M852.001 186.41L839.821 193.45L827.641 186.41L839.821 179.38L852.001 186.41Z" fill="#6D0F3F"/>
<path opacity="0.3" d="M894.38 186.88L882.2 193.91L870.02 186.88L882.2 179.85L894.38 186.88Z" fill="#6D0F3F"/>
<path opacity="0.3" d="M873.198 198.95L861.008 205.98L848.828 198.95L861.008 191.91L873.198 198.95Z" fill="#6D0F3F"/>
<path opacity="0.3" d="M1096.82 80.86L1109.01 73.83L1121.19 80.86L1109.01 87.9L1096.82 80.86Z" fill="#6D0F3F"/>
<path opacity="0.3" d="M1118.01 68.8L1130.2 61.76L1142.38 68.8L1130.2 75.83L1118.01 68.8Z" fill="#6D0F3F"/>
<g opacity="0.5">
<path opacity="0.5" d="M39.9609 92.69L61.1609 104.93L82.3609 92.69L61.1609 80.45L39.9609 92.69Z" stroke="#6D0F3F" stroke-linecap="round" stroke-linejoin="round"/>
<path opacity="0.5" d="M250.262 165.97L271.462 178.21L292.662 165.97L271.462 153.73L250.262 165.97Z" stroke="#6D0F3F" stroke-linecap="round" stroke-linejoin="round"/>
<path opacity="0.5" d="M71.56 98.92L103.24 117.16L47.5 149.69L174.12 222.79L261.17 172.26" stroke="#6D0F3F" stroke-linecap="round" stroke-linejoin="round" stroke-dasharray="2.93 2.93"/>
</g>
<path d="M1218.1 102.77L1242.88 88.47L1267.64 102.77L1242.87 117.07L1218.1 102.77Z" fill="#F6E5E5"/>
<path d="M1242.87 145.67V117.07L1267.64 102.77V131.37L1242.87 145.67Z" fill="#6D0F3F"/>
<path d="M1242.87 145.67V117.07L1218.1 102.77V131.37L1242.87 145.67Z" fill="#A36F8A"/>
<path d="M1218.1 69.62L1242.88 55.32L1267.64 69.62L1242.87 83.92L1218.1 69.62Z" fill="#F6E5E5"/>
<path d="M1242.87 112.52V83.92L1267.64 69.62V98.22L1242.87 112.52Z" fill="#6D0F3F"/>
<path d="M1242.87 112.52V83.92L1218.1 69.62V98.22L1242.87 112.52Z" fill="#A36F8A"/>
<path d="M801.789 136.43L844.009 160.82V144.09L801.789 119.72V136.43Z" fill="#AEAEAE"/>
<path d="M844.012 160.82L928.412 112.07V87.7L907.302 75.52L886.202 87.7V119.72L844.012 144.12V160.82Z" fill="#808080"/>
<path d="M801.789 119.73L844.009 144.09L886.199 119.72L844.009 95.37L801.789 119.73Z" fill="#E9E9E9"/>
<path d="M844 63.34L886.2 87.7V119.72L844.01 95.37L844 63.34Z" fill="#AEAEAE"/>
<path d="M865.1 51.15L907.3 75.52L886.2 87.7L844 63.34L865.1 51.15Z" fill="#E9E9E9"/>
<path d="M907.3 99.8V80.41L890.5 90.11V109.52L907.3 99.8Z" fill="#AEAEAE"/>
<path d="M910.922 97.74L924.162 90.15L910.922 82.51V97.74Z" fill="#AEAEAE"/>
<path d="M919.66 113.92L920.17 114.09L922.56 115.44L919.66 117.19V113.92Z" fill="white"/>
<path d="M904.32 126C904.165 123.274 904.594 120.546 905.58 118C908.19 111 913.83 106.67 918.18 108.3C920.7 109.24 922.23 112 922.56 115.51L919 113.39L904.32 126Z" fill="#262626"/>
<path d="M909.519 131.39L902.359 127.1L904.359 125.98C904.205 123.254 904.635 120.527 905.619 117.98C907.409 113.2 910.619 109.65 913.859 108.42L917.419 110.42L909.519 131.39Z" fill="#525252"/>
<path d="M920.019 123.341C922.188 117.536 921.015 111.735 917.399 110.384C913.783 109.033 909.093 112.643 906.924 118.447C904.755 124.252 905.928 130.053 909.544 131.404C913.16 132.756 917.85 129.146 920.019 123.341Z" fill="#808080"/>
<path d="M916.429 122C917.411 119.372 916.882 116.747 915.247 116.136C913.612 115.525 911.491 117.16 910.509 119.788C909.527 122.416 910.056 125.042 911.691 125.653C913.325 126.264 915.447 124.629 916.429 122Z" fill="#E9E9E9"/>
<path d="M870.309 142.44L870.809 142.61L873.199 143.97L870.309 145.71V142.44Z" fill="white"/>
<path d="M855 154.49C854.855 151.765 855.284 149.039 856.26 146.49C858.87 139.49 864.51 135.16 868.86 136.79C871.39 137.73 872.86 140.49 873.24 143.99L869.63 141.94L855 154.49Z" fill="#262626"/>
<path d="M860.17 159.91L853 155.62L855 154.49C854.855 151.765 855.284 149.039 856.26 146.49C858.05 141.71 861.26 138.16 864.5 136.93L868.06 138.93L860.17 159.91Z" fill="#525252"/>
<path d="M870.668 151.862C872.837 146.058 871.664 140.256 868.047 138.905C864.431 137.554 859.741 141.164 857.572 146.969C855.403 152.773 856.576 158.574 860.192 159.925C863.809 161.277 868.498 157.667 870.668 151.862Z" fill="#808080"/>
<path d="M867.081 150.521C868.063 147.893 867.534 145.268 865.899 144.657C864.265 144.046 862.143 145.681 861.161 148.309C860.179 150.937 860.708 153.563 862.343 154.174C863.978 154.785 866.099 153.15 867.081 150.521Z" fill="#E9E9E9"/>
<path d="M817.211 140.24L828.591 146.81V142.3L817.211 135.73V140.24Z" fill="#3070AA"/>
<path d="M817.422 88.4L844.012 73.05L870.592 88.4L844.012 103.75L817.422 88.4Z" fill="#F6E5E5"/>
<path d="M844.012 134.45V103.75L870.592 88.4V119.1L844.012 134.45Z" fill="#6D0F3F"/>
<path d="M844.012 134.45V103.75L817.422 88.4V119.1L844.012 134.45Z" fill="#A36F8A"/>
<path d="M844.281 102.18C844.061 102.258 843.857 102.38 843.684 102.537C843.51 102.694 843.37 102.884 843.27 103.096C843.171 103.309 843.114 103.538 843.104 103.772C843.094 104.006 843.13 104.24 843.211 104.46C843.245 104.558 843.288 104.652 843.341 104.74L839.191 109.52L842.451 109.96L845.891 105.35C846.256 105.107 846.52 104.739 846.631 104.315C846.742 103.89 846.694 103.44 846.496 103.049C846.297 102.658 845.962 102.354 845.554 102.194C845.146 102.033 844.693 102.029 844.281 102.18Z" fill="#FFB8B8"/>
<path d="M819.13 104.49C819.193 104.952 819.073 105.421 818.794 105.795C818.515 106.169 818.101 106.418 817.64 106.49H817.32L815.09 112.41L813.16 109.74L815.58 104.53C815.624 104.097 815.825 103.695 816.144 103.399C816.464 103.103 816.88 102.933 817.316 102.922C817.751 102.911 818.175 103.059 818.509 103.339C818.843 103.618 819.064 104.01 819.13 104.44V104.49Z" fill="#FFB8B8"/>
<path d="M823.059 167.26H825.229L826.259 158.89H823.059V167.26Z" fill="#FFB8B8"/>
<path d="M822.512 166.55H826.782C827.506 166.55 828.2 166.838 828.712 167.35C829.224 167.862 829.512 168.556 829.512 169.28V169.37H822.512V166.55Z" fill="#2F2E41"/>
<path d="M811.898 164.55H814.068L815.098 156.18H811.898V164.55Z" fill="#FFB8B8"/>
<path d="M811.34 163.84H815.62C816.344 163.84 817.038 164.128 817.55 164.64C818.062 165.152 818.35 165.846 818.35 166.57V166.66H811.35L811.34 163.84Z" fill="#2F2E41"/>
<path d="M822.612 110.07C825.014 110.07 826.962 108.122 826.962 105.72C826.962 103.318 825.014 101.37 822.612 101.37C820.209 101.37 818.262 103.318 818.262 105.72C818.262 108.122 820.209 110.07 822.612 110.07Z" fill="#FFB8B8"/>
<path d="M822.082 164.48L821.722 141.56C821.722 141.49 821.695 141.423 821.646 141.373C821.598 141.322 821.532 141.293 821.462 141.29C821.402 141.292 821.344 141.314 821.297 141.352C821.25 141.39 821.217 141.442 821.202 141.5L815.302 161.21C815.258 161.39 815.153 161.549 815.006 161.66C814.858 161.771 814.676 161.828 814.492 161.82L811.252 161.69C811.147 161.685 811.044 161.659 810.949 161.614C810.853 161.569 810.768 161.506 810.698 161.428C810.627 161.35 810.572 161.258 810.537 161.159C810.502 161.06 810.486 160.955 810.492 160.85C810.487 160.83 810.487 160.81 810.492 160.79L815.492 134.68V134.6L829.432 135.26H829.522L826.522 164.52C826.505 164.719 826.414 164.905 826.269 165.041C826.123 165.178 825.932 165.256 825.732 165.26H822.852C822.649 165.25 822.457 165.164 822.315 165.02C822.172 164.876 822.089 164.683 822.082 164.48Z" fill="#2F2E41"/>
<path d="M833.091 137.2L812.871 135.54C812.766 135.532 812.664 135.504 812.57 135.457C812.476 135.409 812.393 135.343 812.325 135.263C812.257 135.183 812.206 135.09 812.174 134.99C812.142 134.89 812.131 134.785 812.141 134.68C812.13 134.614 812.13 134.546 812.141 134.48L815.331 125.67L815.511 115.22C815.517 114.843 815.598 114.471 815.748 114.125C815.898 113.78 816.115 113.467 816.386 113.205C816.657 112.943 816.978 112.737 817.328 112.599C817.679 112.461 818.054 112.393 818.431 112.4L819.781 111.18H824.711L825.141 111.75L828.571 112.27C829.18 112.369 829.741 112.66 830.173 113.101C830.605 113.541 830.884 114.109 830.971 114.72L834.001 136.3C834.029 136.509 833.974 136.722 833.846 136.89C833.719 137.059 833.53 137.17 833.321 137.2H833.141H833.091Z" fill="#2F2E41"/>
<path d="M829.148 113.29L837.778 110.76L841.678 105.62C841.789 105.467 841.95 105.358 842.133 105.312C842.316 105.267 842.509 105.287 842.678 105.37L845.118 106.37C845.3 106.455 845.443 106.605 845.521 106.789C845.598 106.974 845.604 107.181 845.538 107.37V107.46L842.618 112.46C842.148 113.282 841.426 113.93 840.558 114.31L830.418 118.79L829.148 113.29Z" fill="#2F2E41"/>
<path d="M812.7 116.44C812.268 115.974 811.963 115.404 811.814 114.786C811.665 114.168 811.678 113.522 811.85 112.91L813.2 108.07C813.257 107.876 813.383 107.71 813.555 107.605C813.727 107.5 813.932 107.462 814.13 107.5L816.93 108.09C817.137 108.133 817.318 108.256 817.434 108.432C817.55 108.608 817.592 108.823 817.55 109.03C817.555 109.077 817.555 109.123 817.55 109.17L816.55 111.72L819.95 114.03L815.61 119.48L812.7 116.44Z" fill="#2F2E41"/>
<path d="M825.139 100.5C825.139 100.5 820.589 98.05 818.139 100.94C815.689 103.83 819.079 108.35 819.079 108.35L823.959 108.97C823.959 108.97 824.139 105.65 825.299 105.72C826.459 105.79 829.999 101.59 825.139 100.5Z" fill="#2F2E41"/>
<g opacity="0.8">
<path opacity="0.8" d="M553.148 59.16L559.088 55.74L565.018 59.16L559.088 62.59L553.148 59.16Z" fill="#F6E5E5"/>
<path opacity="0.8" d="M559.09 69.45V62.59L565.02 59.16V66.02L559.09 69.45Z" fill="#6D0F3F"/>
<path opacity="0.8" d="M559.088 69.45V62.59L553.148 59.16V66.02L559.088 69.45Z" fill="#A36F8A"/>
<path opacity="0.8" d="M537.949 59.47L543.879 56.04L549.819 59.47L543.879 62.9L537.949 59.47Z" fill="#F6E5E5"/>
<path opacity="0.8" d="M543.879 69.75V62.9L549.819 59.47V66.33L543.879 69.75Z" fill="#6D0F3F"/>
<path opacity="0.8" d="M543.879 69.75V62.9L537.949 59.47V66.33L543.879 69.75Z" fill="#A36F8A"/>
<path opacity="0.8" d="M545.551 63.75L551.491 60.32L557.421 63.75L551.481 67.18L545.551 63.75Z" fill="#F6E5E5"/>
<path opacity="0.8" d="M551.48 74.03V67.18L557.42 63.75V70.6L551.48 74.03Z" fill="#6D0F3F"/>
<path opacity="0.8" d="M551.481 74.03V67.18L545.551 63.75V70.6L551.481 74.03Z" fill="#A36F8A"/>
<path opacity="0.8" d="M553.148 68.04L559.088 64.61L565.018 68.04L559.088 71.47L553.148 68.04Z" fill="#F6E5E5"/>
<path opacity="0.8" d="M559.09 78.32V71.47L565.02 68.04V74.89L559.09 78.32Z" fill="#6D0F3F"/>
<path opacity="0.8" d="M559.088 78.32V71.47L553.148 68.04V74.89L559.088 78.32Z" fill="#A36F8A"/>
<path opacity="0.8" d="M530.34 63.85L536.28 60.43L542.22 63.85L536.28 67.28L530.34 63.85Z" fill="#F6E5E5"/>
<path opacity="0.8" d="M536.281 74.14V67.28L542.221 63.85V70.71L536.281 74.14Z" fill="#6D0F3F"/>
<path opacity="0.8" d="M536.28 74.14V67.28L530.34 63.85V70.71L536.28 74.14Z" fill="#A36F8A"/>
<path opacity="0.8" d="M537.949 68.13L543.879 64.7L549.819 68.13L543.879 71.56L537.949 68.13Z" fill="#F6E5E5"/>
<path opacity="0.8" d="M543.879 78.41V71.56L549.819 68.13V74.98L543.879 78.41Z" fill="#6D0F3F"/>
<path opacity="0.8" d="M543.879 78.41V71.56L537.949 68.13V74.98L543.879 78.41Z" fill="#A36F8A"/>
<path opacity="0.8" d="M530.34 55.14L536.28 51.71L542.22 55.14L536.28 58.57L530.34 55.14Z" fill="#F6E5E5"/>
<path opacity="0.8" d="M536.281 65.42V58.57L542.221 55.14V61.99L536.281 65.42Z" fill="#6D0F3F"/>
<path opacity="0.8" d="M536.28 65.42V58.57L530.34 55.14V61.99L536.28 65.42Z" fill="#A36F8A"/>
<path opacity="0.8" d="M545.551 72.42L551.491 69L557.421 72.42L551.481 75.85L545.551 72.42Z" fill="#F6E5E5"/>
<path opacity="0.8" d="M551.48 82.7V75.85L557.42 72.42V79.28L551.48 82.7Z" fill="#6D0F3F"/>
<path opacity="0.8" d="M551.481 82.7V75.85L545.551 72.42V79.28L551.481 82.7Z" fill="#A36F8A"/>
<path opacity="0.8" d="M560.469 80.44L566.399 77.01L572.339 80.44L566.399 83.86L560.469 80.44Z" fill="#F6E5E5"/>
<path opacity="0.8" d="M566.398 90.72V83.86L572.338 80.44V87.29L566.398 90.72Z" fill="#6D0F3F"/>
<path opacity="0.8" d="M566.399 90.72V83.86L560.469 80.44V87.29L566.399 90.72Z" fill="#A36F8A"/>
</g>
<g opacity="0.8">
<path opacity="0.8" d="M415.957 184.52L424.107 179.81L432.257 184.52L424.107 189.22L415.957 184.52Z" fill="#F6E5E5"/>
<path opacity="0.8" d="M424.109 198.64V189.22L432.259 184.52V193.93L424.109 198.64Z" fill="#6D0F3F"/>
<path opacity="0.8" d="M424.107 198.64V189.22L415.957 184.52V193.93L424.107 198.64Z" fill="#A36F8A"/>
<path opacity="0.8" d="M415.957 196.71L424.107 192L432.257 196.71L424.107 201.41L415.957 196.71Z" fill="#F6E5E5"/>
<path opacity="0.8" d="M424.109 210.83V201.41L432.259 196.71V206.12L424.109 210.83Z" fill="#6D0F3F"/>
<path opacity="0.8" d="M424.107 210.83V201.41L415.957 196.71V206.12L424.107 210.83Z" fill="#A36F8A"/>
<path opacity="0.8" d="M384.629 190.96L392.789 186.25L400.939 190.96L392.789 195.67L384.629 190.96Z" fill="#F6E5E5"/>
<path opacity="0.8" d="M392.789 205.08V195.67L400.939 190.96V200.37L392.789 205.08Z" fill="#6D0F3F"/>
<path opacity="0.8" d="M392.789 205.08V195.67L384.629 190.96V200.37L392.789 205.08Z" fill="#A36F8A"/>
<path opacity="0.8" d="M395.07 196.83L403.23 192.12L411.38 196.83L403.23 201.54L395.07 196.83Z" fill="#F6E5E5"/>
<path opacity="0.8" d="M403.23 210.95V201.54L411.38 196.83V206.25L403.23 210.95Z" fill="#6D0F3F"/>
<path opacity="0.8" d="M403.23 210.95V201.54L395.07 196.83V206.25L403.23 210.95Z" fill="#A36F8A"/>
<path opacity="0.8" d="M395.07 185.2L403.23 180.49L411.38 185.2L403.23 189.91L395.07 185.2Z" fill="#F6E5E5"/>
<path opacity="0.8" d="M403.23 199.32V189.91L411.38 185.2V194.62L403.23 199.32Z" fill="#6D0F3F"/>
<path opacity="0.8" d="M403.23 199.32V189.91L395.07 185.2V194.62L403.23 199.32Z" fill="#A36F8A"/>
</g>
<path d="M504.07 90.86C504.162 90.9002 504.249 90.9505 504.33 91.01L512.85 87.37L513.15 85.13H516.55L516.35 90.27L505.11 93.27C504.984 93.643 504.748 93.9689 504.432 94.2044C504.117 94.4399 503.737 94.5738 503.344 94.5883C502.95 94.6028 502.562 94.4973 502.23 94.2857C501.897 94.0741 501.638 93.7665 501.485 93.4038C501.332 93.041 501.293 92.6403 501.373 92.2548C501.453 91.8694 501.648 91.5174 501.933 91.2457C502.218 90.9739 502.579 90.7954 502.968 90.7336C503.357 90.6719 503.755 90.7299 504.11 90.9L504.07 90.86Z" fill="#FEB8B8"/>
<path d="M517.789 137.47H515.459L514.359 128.47H517.789V137.47Z" fill="#FEB8B8"/>
<path d="M513.8 136.81H518.29V139.63H511C511 138.882 511.297 138.165 511.826 137.636C512.355 137.107 513.072 136.81 513.82 136.81H513.8Z" fill="#2F2E41"/>
<path d="M526.841 136.81L524.531 137.04L522.531 128.22L525.951 127.88L526.841 136.81Z" fill="#FEB8B8"/>
<path d="M522.811 136.54L527.271 136.1L527.551 138.92L520.271 139.63C520.199 138.884 520.425 138.139 520.902 137.559C521.378 136.98 522.065 136.613 522.811 136.54Z" fill="#2F2E41"/>
<path d="M518.441 75.61C521.015 75.61 523.101 73.5236 523.101 70.95C523.101 68.3763 521.015 66.29 518.441 66.29C515.868 66.29 513.781 68.3763 513.781 70.95C513.781 73.5236 515.868 75.61 518.441 75.61Z" fill="#FEB8B8"/>
<path d="M514.941 135.66C514.742 135.658 514.549 135.586 514.397 135.456C514.245 135.326 514.144 135.147 514.111 134.95C512.901 128.27 508.961 106.4 508.871 105.8V104.12C508.869 104.063 508.887 104.006 508.921 103.96L509.441 103.23C509.467 103.195 509.5 103.167 509.538 103.146C509.576 103.125 509.618 103.113 509.661 103.11C512.661 102.97 522.331 102.57 522.801 103.11C523.271 103.7 523.111 105.49 523.071 105.84L527.431 133.75C527.454 133.862 527.454 133.977 527.431 134.089C527.408 134.201 527.362 134.307 527.297 134.401C527.231 134.494 527.147 134.574 527.05 134.634C526.953 134.694 526.844 134.733 526.731 134.75L524.001 135.2C523.792 135.247 523.573 135.214 523.388 135.106C523.202 134.999 523.064 134.825 523.001 134.62C522.161 131.92 519.331 122.86 518.351 119.36C518.349 119.348 518.344 119.337 518.337 119.327C518.33 119.317 518.322 119.308 518.311 119.301C518.301 119.295 518.29 119.29 518.277 119.289C518.265 119.287 518.253 119.287 518.241 119.29C518.219 119.292 518.199 119.303 518.184 119.32C518.169 119.336 518.161 119.358 518.161 119.38C518.161 122.73 518.331 131.25 518.371 134.2V134.51C518.37 134.725 518.29 134.933 518.146 135.093C518.003 135.253 517.805 135.356 517.591 135.38L514.961 135.61L514.941 135.66Z" fill="#2F2E41"/>
<path d="M515.48 77.44C514.694 77.9827 514.132 78.7932 513.9 79.72C513.381 81.3956 513.068 83.1285 512.97 84.88L512.68 90.11L509 104C512.17 106.69 514 106.08 518.26 103.88C522.52 101.68 523.01 104.61 523.01 104.61L523.87 92.8L525.09 79.88C524.813 79.5508 524.501 79.2525 524.16 78.99C523.04 78.1229 521.74 77.5198 520.354 77.2254C518.969 76.9311 517.535 76.9532 516.16 77.29L515.48 77.44Z" fill="#757575"/>
<path d="M514.289 93.66L514.58 93.79L523 89.58L523.14 87.3L526.609 87.06L526.789 92.26L515.539 96C515.451 96.3866 515.25 96.7382 514.961 97.0101C514.672 97.282 514.309 97.4619 513.918 97.527C513.527 97.592 513.125 97.5393 512.764 97.3755C512.403 97.2117 512.098 96.9442 511.889 96.607C511.681 96.2698 511.577 95.8782 511.591 95.4818C511.605 95.0855 511.737 94.7024 511.97 94.3811C512.202 94.0599 512.525 93.8151 512.897 93.6778C513.27 93.5405 513.674 93.5169 514.06 93.61L514.289 93.68V93.66Z" fill="#FEB8B8"/>
<path d="M524.999 79.94C527.079 80.67 527.439 88.59 527.439 88.59C524.999 87.25 522.079 89.44 522.079 89.44C522.079 89.44 521.469 87.37 520.739 84.69C520.522 83.9349 520.5 83.1371 520.675 82.3712C520.85 81.6053 521.216 80.8961 521.739 80.31C522.204 79.9712 522.749 79.759 523.32 79.6942C523.892 79.6293 524.47 79.714 524.999 79.94Z" fill="#E6E6E6"/>
<path d="M522.621 72.18C522.041 71.71 521.251 72.56 521.251 72.56L520.781 68.38C519.197 68.5662 517.594 68.5258 516.021 68.26C514.161 67.8 513.871 69.95 513.871 69.95C513.771 69.0803 513.751 68.2033 513.811 67.33C513.931 66.33 515.441 65.24 518.111 64.54C520.781 63.84 522.171 66.87 522.171 66.87C524.001 67.8 523.201 72.64 522.621 72.18Z" fill="#2F2E41"/>
<path d="M655.55 123.7C655.55 123.7 624.73 100.34 624.73 100.17C625.599 99.3954 626.51 98.6709 627.461 98L669.331 122.14L655.55 123.7Z" fill="#E9E9E9"/>
<path d="M630.268 101.85C630.268 106.37 626.868 108.67 623.748 110.47C620.628 112.27 617.238 107.56 617.238 103.97C617.238 100.38 620.528 99.23 623.748 97.46C626.968 95.69 630.268 98.67 630.268 101.85Z" fill="#E9E9E9"/>
<path d="M406.211 77.48C406.211 82.01 409.611 84.31 412.731 86.11C415.851 87.91 419.241 83.2 419.241 79.6C419.241 76 415.951 74.87 412.731 73.1C409.511 71.33 406.211 74.3 406.211 77.48Z" fill="#E9E9E9"/>
<path d="M380.13 99.2C380.13 99.2 411 75.85 411 75.68C410.135 74.899 409.223 74.171 408.27 73.5L368 97.83L380.13 99.2Z" fill="#E9E9E9"/>
<path d="M370.512 110.48V97.47L412.732 73.1L581.542 170.54V183.55L539.352 207.93L370.512 110.48Z" fill="#AEAEAE"/>
<path d="M370.512 97.47L412.732 73.1L581.542 170.54L539.372 194.92L370.512 97.47Z" fill="#E9E9E9"/>
<path d="M373.521 110.879C375.823 110.019 376.575 106.34 375.201 102.661C373.826 98.9829 370.846 96.6985 368.543 97.5588C366.241 98.419 365.489 102.098 366.864 105.777C368.238 109.455 371.219 111.739 373.521 110.879Z" fill="#AEAEAE"/>
<path d="M372.158 107.235C373.203 106.845 373.546 105.178 372.923 103.512C372.301 101.846 370.949 100.812 369.904 101.203C368.859 101.593 368.516 103.26 369.139 104.926C369.761 106.592 371.113 107.626 372.158 107.235Z" fill="#E9E9E9"/>
<path d="M665.972 134.84V121.83L623.752 97.46L537.512 147.27L539.272 172.03L539.392 207.93L665.972 134.84Z" fill="#808080"/>
<path d="M665.969 121.83L623.749 97.46L497.199 170.54L539.369 194.92L665.969 121.83Z" fill="#E9E9E9"/>
<path d="M670.271 129.887C671.646 126.208 670.894 122.529 668.591 121.669C666.289 120.808 663.309 123.093 661.934 126.771C660.56 130.45 661.312 134.129 663.614 134.989C665.916 135.849 668.897 133.565 670.271 129.887Z" fill="#808080"/>
<path d="M667.994 129.036C668.616 127.37 668.274 125.703 667.229 125.313C666.183 124.922 664.832 125.956 664.209 127.622C663.587 129.288 663.929 130.955 664.974 131.345C666.019 131.736 667.371 130.702 667.994 129.036Z" fill="#AEAEAE"/>
<g opacity="0.5">
<path opacity="0.5" d="M536.16 148.06L501.57 168.02" stroke="#AEAEAE" stroke-width="2" stroke-miterlimit="10" stroke-linecap="round"/>
<path opacity="0.5" d="M514.912 135.97L480.332 155.93" stroke="#AEAEAE" stroke-width="2" stroke-miterlimit="10" stroke-linecap="round"/>
<path opacity="0.5" d="M493.67 123.87L459.09 143.83" stroke="#AEAEAE" stroke-width="2" stroke-miterlimit="10" stroke-linecap="round"/>
<path opacity="0.5" d="M472.43 111.78L437.84 131.74" stroke="#AEAEAE" stroke-width="2" stroke-miterlimit="10" stroke-linecap="round"/>
<path opacity="0.5" d="M451.192 99.69L416.602 119.65" stroke="#AEAEAE" stroke-width="2" stroke-miterlimit="10" stroke-linecap="round"/>
<path opacity="0.5" d="M429.949 87.6L395.359 107.56" stroke="#AEAEAE" stroke-width="2" stroke-miterlimit="10" stroke-linecap="round"/>
<path opacity="0.5" d="M408.701 75.51L374.121 95.47" stroke="#AEAEAE" stroke-width="2" stroke-miterlimit="10" stroke-linecap="round"/>
<path opacity="0.5" d="M542.73 148.06L577.32 168.02" stroke="#AEAEAE" stroke-width="2" stroke-miterlimit="10" stroke-linecap="round"/>
<path opacity="0.5" d="M563.973 135.97L598.563 155.93" stroke="#AEAEAE" stroke-width="2" stroke-miterlimit="10" stroke-linecap="round"/>
<path opacity="0.5" d="M585.223 123.87L619.803 143.83" stroke="#AEAEAE" stroke-width="2" stroke-miterlimit="10" stroke-linecap="round"/>
<path opacity="0.5" d="M606.461 111.78L641.051 131.74" stroke="#AEAEAE" stroke-width="2" stroke-miterlimit="10" stroke-linecap="round"/>
<path opacity="0.5" d="M627.699 99.69L662.289 119.65" stroke="#AEAEAE" stroke-width="2" stroke-miterlimit="10" stroke-linecap="round"/>
<path opacity="0.5" d="M539.531 149.37V189.46" stroke="#AEAEAE" stroke-width="2" stroke-miterlimit="10" stroke-linecap="round"/>
</g>
<path d="M366.449 80.58L388.169 68.04L409.869 80.58L388.159 93.11L366.449 80.58Z" fill="#F6E5E5"/>
<path d="M388.16 118.18V93.11L409.87 80.58V105.64L388.16 118.18Z" fill="#6D0F3F"/>
<path d="M388.159 118.18V93.11L366.449 80.58V105.64L388.159 118.18Z" fill="#A36F8A"/>
<path d="M502.809 89.64L509.809 85.61L516.799 89.64L509.809 93.68L502.809 89.64Z" fill="#F6E5E5"/>
<path d="M509.809 101.76V93.68L516.799 89.64V97.72L509.809 101.76Z" fill="#6D0F3F"/>
<path d="M509.809 101.76V93.68L502.809 89.64V97.72L509.809 101.76Z" fill="#A36F8A"/>
<path d="M565.539 118.81L587.259 106.28L608.959 118.81L587.249 131.34L565.539 118.81Z" fill="#F6E5E5"/>
<path d="M587.25 156.41V131.34L608.96 118.81V143.88L587.25 156.41Z" fill="#6D0F3F"/>
<path d="M587.249 156.41V131.34L565.539 118.81V143.88L587.249 156.41Z" fill="#A36F8A"/>
<path d="M454.352 110.46L476.062 97.92L497.762 110.46L476.062 122.99L454.352 110.46Z" fill="#F6E5E5"/>
<path d="M476.059 148.06V122.99L497.759 110.46V135.52L476.059 148.06Z" fill="#6D0F3F"/>
<path d="M476.062 148.06V122.99L454.352 110.46V135.52L476.062 148.06Z" fill="#6D0F3F"/>
<path d="M483.301 110.45L490.531 106.28L497.761 110.45L490.531 114.63L483.301 110.45Z" fill="white"/>
<path d="M490.531 122.98V114.63L497.761 110.45V118.8L490.531 122.98Z" fill="white"/>
<path d="M483.301 110.45L490.531 106.28L497.761 110.45L490.531 114.63L483.301 110.45Z" fill="white"/>
<path d="M490.531 122.98V114.63L497.761 110.45V118.8L490.531 122.98Z" fill="white"/>
<path d="M490.531 114.63L497.761 118.8L490.531 122.98V114.63Z" fill="#F6E5E5"/>
<path d="M483.301 110.45L490.531 106.28V114.63L483.301 110.45Z" fill="#6D0F3F"/>
<path d="M514.289 93.66L514.58 93.79L523 89.58L523.14 87.3L526.609 87.06L526.789 92.26L515.539 96C515.451 96.3866 515.25 96.7382 514.961 97.0101C514.672 97.282 514.309 97.4619 513.918 97.527C513.527 97.592 513.125 97.5393 512.764 97.3755C512.403 97.2117 512.098 96.9442 511.889 96.607C511.681 96.2698 511.577 95.8782 511.591 95.4818C511.605 95.0855 511.737 94.7024 511.97 94.3811C512.202 94.0599 512.525 93.8151 512.897 93.6778C513.27 93.5405 513.674 93.5169 514.06 93.61L514.289 93.68V93.66Z" fill="#FEB8B8"/>
<path d="M524.999 79.94C527.079 80.67 527.439 88.59 527.439 88.59C524.999 87.25 522.079 89.44 522.079 89.44C522.079 89.44 521.469 87.37 520.739 84.69C520.522 83.9349 520.5 83.1371 520.675 82.3712C520.85 81.6053 521.216 80.8961 521.739 80.31C522.204 79.9712 522.749 79.759 523.32 79.6942C523.892 79.6293 524.47 79.714 524.999 79.94Z" fill="#757575"/>
<path d="M390.488 145.96H392.858L393.978 136.83H390.488V145.96Z" fill="#FFB8B8"/>
<path d="M389.879 145.19H394.549C395.345 145.19 396.108 145.506 396.67 146.069C397.233 146.631 397.549 147.394 397.549 148.19V148.29H389.909L389.879 145.19Z" fill="#2F2E41"/>
<path d="M381.988 144.16H384.358L385.488 135.03H381.988V144.16Z" fill="#FFB8B8"/>
<path d="M381.391 143.38H386.051C386.846 143.38 387.609 143.696 388.172 144.259C388.735 144.821 389.051 145.584 389.051 146.38V146.48H381.421L381.391 143.38Z" fill="#2F2E41"/>
<path d="M384.371 141.36H382.371C382.146 141.36 381.93 141.272 381.77 141.115C381.609 140.958 381.516 140.745 381.511 140.52L381.441 138.76C380.931 124.68 380.441 111.92 383.671 105.38L394.461 104.99L396.631 124.86C396.722 125.707 396.689 126.563 396.531 127.4L393.661 142.49C393.623 142.693 393.513 142.875 393.351 143.004C393.19 143.132 392.987 143.198 392.781 143.19L390.521 143.12C390.407 143.116 390.294 143.09 390.19 143.042C390.086 142.995 389.992 142.928 389.914 142.844C389.836 142.761 389.775 142.662 389.735 142.555C389.695 142.448 389.677 142.334 389.681 142.22V142.16L391.461 128.16C391.523 127.559 391.469 126.951 391.301 126.37L389.091 118.64C389.081 118.603 389.063 118.569 389.039 118.539C389.015 118.51 388.985 118.485 388.952 118.467C388.918 118.45 388.881 118.439 388.843 118.436C388.805 118.433 388.767 118.438 388.731 118.45C388.678 118.464 388.631 118.493 388.595 118.534C388.56 118.575 388.537 118.626 388.531 118.68L385.231 140.61C385.202 140.818 385.099 141.008 384.941 141.146C384.783 141.283 384.581 141.36 384.371 141.36Z" fill="#2F2E41"/>
<path d="M385.662 85.07C388.28 85.07 390.402 82.9478 390.402 80.33C390.402 77.7122 388.28 75.59 385.662 75.59C383.044 75.59 380.922 77.7122 380.922 80.33C380.922 82.9478 383.044 85.07 385.662 85.07Z" fill="#FFB8B8"/>
<path d="M394.001 106.4H384.181C384.067 106.4 383.954 106.377 383.848 106.334C383.743 106.29 383.647 106.226 383.566 106.145C383.485 106.064 383.421 105.968 383.377 105.863C383.334 105.757 383.311 105.644 383.311 105.53C383.311 105.53 383.311 105.45 383.311 105.41L383.801 102.09L380.951 94.26C380.693 93.5489 380.577 92.7939 380.611 92.0382C380.645 91.2824 380.827 90.5407 381.147 89.8554C381.468 89.1701 381.92 88.5546 382.478 88.0441C383.037 87.5335 383.69 87.138 384.401 86.88C384.786 86.7391 385.185 86.6386 385.591 86.58C386.807 86.4085 388.046 86.6316 389.126 87.2166C390.206 87.8016 391.07 88.7176 391.591 89.83L392.211 91.16L394.851 105.38C394.871 105.492 394.869 105.606 394.845 105.717C394.82 105.828 394.774 105.933 394.709 106.026C394.644 106.119 394.561 106.198 394.466 106.259C394.37 106.319 394.263 106.361 394.151 106.38L394.001 106.4Z" fill="#757575"/>
<path d="M366.781 107.84C367.047 107.894 367.322 107.895 367.589 107.843C367.856 107.79 368.11 107.686 368.336 107.536C368.563 107.385 368.758 107.192 368.909 106.966C369.061 106.74 369.167 106.487 369.221 106.22C369.221 106.1 369.221 105.97 369.221 105.85L381.631 95.16L378.091 92.35L367.041 103.71C366.487 103.736 365.966 103.98 365.592 104.388C365.217 104.796 365.019 105.336 365.041 105.89C365.049 106.367 365.221 106.827 365.529 107.191C365.837 107.556 366.262 107.802 366.731 107.89L366.781 107.84Z" fill="#FFB8B8"/>
<path d="M379.451 97.55L376.391 94C376.232 93.8116 376.155 93.5679 376.175 93.3222C376.196 93.0766 376.313 92.8492 376.501 92.69L376.611 92.61L380.611 90.12C381.135 89.7959 381.758 89.6702 382.367 89.7656C382.976 89.861 383.531 90.1712 383.931 90.6401C384.331 91.1089 384.55 91.7055 384.548 92.3218C384.546 92.9381 384.324 93.5334 383.921 94L380.861 97.52C380.701 97.7067 380.473 97.8221 380.227 97.8409C379.981 97.8596 379.738 97.7802 379.551 97.62C379.515 97.5892 379.482 97.5558 379.451 97.52V97.55Z" fill="#757575"/>
<path d="M410.91 82.21C410.825 82.5018 410.678 82.7719 410.48 83.0021C410.282 83.2323 410.036 83.4172 409.76 83.5443C409.484 83.6713 409.184 83.7376 408.881 83.7386C408.577 83.7396 408.276 83.6753 408 83.55L390.47 90.55L389.52 86.14L407.06 80.62C407.302 80.1646 407.704 79.8155 408.19 79.6404C408.675 79.4652 409.208 79.4766 409.685 79.6722C410.162 79.8678 410.55 80.2338 410.772 80.699C410.995 81.1643 411.037 81.6957 410.89 82.19L410.91 82.21Z" fill="#FFB8B8"/>
<path d="M395.182 89.7C395.119 89.8175 395.034 89.9213 394.931 90.0055C394.828 90.0896 394.709 90.1523 394.582 90.19L390.062 91.37C389.439 91.5971 388.754 91.576 388.146 91.3112C387.539 91.0463 387.057 90.558 386.8 89.9474C386.543 89.3369 386.53 88.6508 386.765 88.0313C387 87.4118 387.465 86.9065 388.062 86.62L392.062 84.17C392.273 84.0437 392.526 84.0054 392.765 84.0634C393.005 84.1213 393.212 84.2709 393.342 84.48L393.402 84.6L395.242 88.92C395.29 89.0464 395.309 89.1819 395.299 89.3167C395.289 89.4515 395.249 89.5824 395.182 89.7Z" fill="#757575"/>
<path d="M391.889 78.34C391.888 77.9136 391.828 77.4894 391.709 77.08C391.323 75.7343 390.458 74.5764 389.277 73.8247C388.096 73.0731 386.681 72.7797 385.299 73C384.745 72.848 384.173 72.7706 383.599 72.77C382.148 72.7765 380.748 73.2994 379.648 74.245C378.549 75.1906 377.822 76.4971 377.599 77.93L375.309 92.65H387.669L389.669 79.81C389.74 79.3301 389.757 78.8437 389.719 78.36L391.889 78.34Z" fill="#2F2E41"/>
<g opacity="0.5">
<path opacity="0.5" d="M487.17 59.41L465.97 47.17L444.77 59.41L465.97 71.64L487.17 59.41Z" stroke="#6D0F3F" stroke-linecap="round" stroke-linejoin="round"/>
<path opacity="0.5" d="M307.619 90.03L286.419 77.79L265.219 90.03L286.419 102.27L307.619 90.03Z" stroke="#6D0F3F" stroke-linecap="round" stroke-linejoin="round"/>
<path opacity="0.5" d="M297.008 83.91L402.618 22.91L455.398 53.26" stroke="#6D0F3F" stroke-linecap="round" stroke-linejoin="round" stroke-dasharray="2.93 2.93"/>
</g>
<g opacity="0.8">
<path opacity="0.8" d="M70.7109 33.62L88.3009 23.46L105.871 33.62L88.2909 43.77L70.7109 33.62Z" fill="#F6E5E5"/>
<path opacity="0.8" d="M88.2891 64.07V43.77L105.869 33.62V53.92L88.2891 64.07Z" fill="#6D0F3F"/>
<path opacity="0.8" d="M88.2909 64.07V43.77L70.7109 33.62V53.92L88.2909 64.07Z" fill="#A36F8A"/>
<path opacity="0.8" d="M93.2227 46.28L110.813 36.13L128.393 46.28L110.813 56.43L93.2227 46.28Z" fill="#F6E5E5"/>
<path opacity="0.8" d="M110.812 76.73V56.43L128.393 46.28V66.58L110.812 76.73Z" fill="#6D0F3F"/>
<path opacity="0.8" d="M110.813 76.73V56.43L93.2227 46.28V66.58L110.813 76.73Z" fill="#A36F8A"/>
<path opacity="0.8" d="M93.2227 23.15L110.813 13L128.393 23.15L110.813 33.3L93.2227 23.15Z" fill="#F6E5E5"/>
<path opacity="0.8" d="M110.812 53.6V33.3L128.393 23.15V43.45L110.812 53.6Z" fill="#6D0F3F"/>
<path opacity="0.8" d="M110.813 53.6V33.3L93.2227 23.15V43.45L110.813 53.6Z" fill="#A36F8A"/>
</g>
<path d="M181.719 117.44L226.029 91.86L270.319 117.44L226.019 143.02L181.719 117.44Z" fill="#E9E9E9"/>
<path d="M226.02 151.54V143.02L270.32 117.44V125.96L226.02 151.54Z" fill="#808080"/>
<path d="M226.019 151.54V143.02L181.719 117.44V125.96L226.019 151.54Z" fill="#AEAEAE"/>
<path d="M202.23 137.94L170.23 157.37" stroke="#2F2E41" stroke-width="4.75" stroke-linecap="round" stroke-linejoin="round"/>
<path d="M204.309 92.99L226.019 80.45L247.719 92.99L226.019 105.52L204.309 92.99Z" fill="#F6E5E5"/>
<path d="M226.02 130.59V105.52L247.72 92.99V118.05L226.02 130.59Z" fill="#6D0F3F"/>
<path d="M226.019 130.59V105.52L204.309 92.99V118.05L226.019 130.59Z" fill="#A36F8A"/>
<path d="M166.4 186.24L187.49 174.06V125.33L145.29 100.96L140.64 103.43L124 137.32L124.3 161.77L166.4 186.24Z" fill="#E9E9E9"/>
<path d="M182.688 128.47L187.488 125.33V174.06L166.398 186.24V161.9L182.688 128.47Z" fill="#808080"/>
<path d="M128.41 135.21L165.6 155.78L178.65 128.47L142.8 107.92L128.41 135.21Z" fill="#383838"/>
<path d="M148.069 124.19L146.539 122.22L149.019 121.88" stroke="white" stroke-linecap="round" stroke-linejoin="round"/>
<path d="M155.379 121.02L157.859 120.69L159.389 122.66" stroke="white" stroke-linecap="round" stroke-linejoin="round"/>
<path d="M163.309 127.74L164.839 129.72L162.359 130.05" stroke="white" stroke-linecap="round" stroke-linejoin="round"/>
<path d="M156 130.91L153.53 131.25L152 129.27" stroke="white" stroke-linecap="round" stroke-linejoin="round"/>
<path d="M151.671 141.48L149.191 141.81L150.141 139.5" stroke="white" stroke-linecap="round" stroke-linejoin="round"/>
<path d="M152.578 133.56L153.528 131.25L155.998 130.91" stroke="white" stroke-linecap="round" stroke-linejoin="round"/>
<path d="M162.359 130.05L164.839 129.72L163.889 132.03" stroke="white" stroke-linecap="round" stroke-linejoin="round"/>
<path d="M161.461 137.97L160.511 140.28L158.031 140.62" stroke="white" stroke-linecap="round" stroke-linejoin="round"/>
<path d="M147.66 139.84L149.19 141.81L150.14 139.5" stroke="white" stroke-linecap="round" stroke-linejoin="round"/>
<path d="M152.58 133.56L153.53 131.25L152 129.27" stroke="white" stroke-linecap="round" stroke-linejoin="round"/>
<path d="M148.07 124.19L146.54 122.21L145.59 124.53" stroke="white" stroke-linecap="round" stroke-linejoin="round"/>
<path d="M143.161 130.47L142.211 132.78L143.741 134.76" stroke="white" stroke-linecap="round" stroke-linejoin="round"/>
<path d="M136.641 174.94H140.401L139.191 184.76H136.641V174.94Z" fill="#A0616A"/>
<path d="M144.102 187.13H136.102V184H141.002C141.412 183.999 141.818 184.079 142.196 184.236C142.575 184.393 142.919 184.624 143.207 184.916C143.496 185.207 143.723 185.553 143.877 185.933C144.031 186.313 144.107 186.72 144.102 187.13Z" fill="#2F2E41"/>
<path d="M127.09 171.33H130.84L129.63 181.15H127.09V171.33Z" fill="#A0616A"/>
<path d="M134.551 183.52H126.551V180.42H131.461C132.281 180.423 133.067 180.75 133.646 181.331C134.226 181.913 134.551 182.7 134.551 183.52Z" fill="#2F2E41"/>
<path d="M127.399 155.5C126.94 155.813 126.38 155.944 125.83 155.867C125.279 155.791 124.777 155.512 124.42 155.086C124.063 154.659 123.878 154.115 123.9 153.56C123.922 153.004 124.15 152.477 124.539 152.08L124.669 128.77L129.499 128.3L127.829 152.11C127.917 152.207 127.997 152.311 128.069 152.42C128.386 152.918 128.493 153.521 128.368 154.098C128.242 154.675 127.894 155.178 127.399 155.5Z" fill="#A0616A"/>
<path d="M136.718 179.82C136.492 179.807 136.277 179.718 136.108 179.568C135.939 179.417 135.826 179.213 135.788 178.99L134.308 166.61C134.29 166.452 134.221 166.305 134.11 166.191C134 166.078 133.855 166.003 133.698 165.98C133.604 165.963 133.508 165.965 133.414 165.986C133.321 166.007 133.233 166.047 133.155 166.103C133.078 166.159 133.013 166.23 132.963 166.312C132.914 166.394 132.882 166.485 132.868 166.58L130.998 174.83C130.967 175.05 130.856 175.251 130.686 175.394C130.517 175.538 130.3 175.615 130.078 175.61H127.078C126.955 175.61 126.834 175.586 126.72 175.538C126.607 175.491 126.504 175.421 126.417 175.334C126.331 175.247 126.262 175.143 126.216 175.029C126.17 174.915 126.147 174.793 126.148 174.67C126.098 164.13 126.148 157.59 127.598 152C127.596 151.775 127.677 151.558 127.824 151.388C127.971 151.219 128.176 151.109 128.398 151.08L139.618 149.45H139.758C139.881 149.45 140.002 149.474 140.115 149.522C140.228 149.569 140.33 149.639 140.416 149.727C140.502 149.814 140.569 149.918 140.614 150.032C140.659 150.146 140.681 150.268 140.678 150.39C142.248 155.12 141.228 167.39 140.488 178.76C140.489 179 140.396 179.231 140.23 179.404C140.064 179.577 139.838 179.68 139.598 179.69L136.788 179.82H136.718Z" fill="#2F2E41"/>
<path d="M130.901 153C129.824 152.99 128.756 152.801 127.741 152.44C127.572 152.369 127.426 152.253 127.319 152.105C127.211 151.957 127.146 151.782 127.131 151.6C127.041 149.46 126.471 138.4 124.821 131.66C124.502 130.336 124.581 128.947 125.049 127.667C125.517 126.388 126.353 125.276 127.451 124.47L127.721 124.29C128.673 123.653 129.772 123.27 130.913 123.179C132.055 123.088 133.201 123.291 134.241 123.77C135.312 124.256 136.241 125.007 136.941 125.952C137.641 126.897 138.088 128.004 138.241 129.17L140.921 149.17C140.941 149.295 140.935 149.423 140.902 149.545C140.869 149.668 140.811 149.782 140.731 149.88C140.655 149.978 140.56 150.059 140.452 150.119C140.344 150.179 140.224 150.217 140.101 150.23C138.215 150.469 136.398 151.092 134.761 152.06C133.574 152.693 132.246 153.016 130.901 153Z" fill="#757575"/>
<path d="M127.621 136.45L123.191 135.25C122.953 135.182 122.751 135.024 122.629 134.808C122.508 134.593 122.476 134.339 122.541 134.1L124.091 128.36C124.263 127.751 124.653 127.226 125.187 126.886C125.721 126.546 126.361 126.414 126.986 126.515C127.611 126.616 128.177 126.944 128.576 127.435C128.975 127.927 129.18 128.548 129.151 129.18L128.801 135.59C128.792 135.729 128.752 135.864 128.685 135.987C128.618 136.109 128.525 136.214 128.412 136.296C128.299 136.379 128.17 136.435 128.033 136.461C127.897 136.488 127.756 136.484 127.621 136.45Z" fill="#757575"/>
<path d="M132.541 121.05C135.358 121.05 137.641 118.767 137.641 115.95C137.641 113.133 135.358 110.85 132.541 110.85C129.725 110.85 127.441 113.133 127.441 115.95C127.441 118.767 129.725 121.05 132.541 121.05Z" fill="#A0616A"/>
<path d="M151.001 126C151.001 125.91 151.051 125.82 151.081 125.74C151.23 125.336 151.496 124.984 151.845 124.731C152.194 124.478 152.61 124.333 153.041 124.317C153.472 124.3 153.898 124.411 154.265 124.636C154.633 124.862 154.925 125.191 155.106 125.583C155.286 125.974 155.347 126.411 155.279 126.837C155.211 127.262 155.019 127.659 154.726 127.975C154.434 128.292 154.054 128.514 153.634 128.615C153.215 128.715 152.775 128.689 152.371 128.54L142.191 136.54L137.551 133.24L139.861 130.24L142.031 131.49L150.951 126.34C150.951 126.22 150.951 126.11 151.001 126Z" fill="#A0616A"/>
<path d="M141.319 131.72L137.469 134.21C137.367 134.277 137.252 134.324 137.132 134.346C137.011 134.369 136.888 134.368 136.768 134.343C136.648 134.318 136.534 134.269 136.433 134.2C136.332 134.131 136.246 134.043 136.179 133.94L132.999 129C132.607 128.467 132.436 127.802 132.522 127.146C132.607 126.489 132.943 125.891 133.458 125.476C133.974 125.061 134.63 124.861 135.29 124.918C135.949 124.974 136.562 125.283 136.999 125.78L141.539 130.32C141.638 130.419 141.713 130.538 141.76 130.67C141.806 130.801 141.823 130.942 141.809 131.081C141.794 131.219 141.749 131.353 141.677 131.473C141.604 131.592 141.506 131.693 141.389 131.77L141.319 131.72Z" fill="#757575"/>
<path d="M126.789 116.87C126.508 116.029 126.418 115.137 126.523 114.257C126.629 113.376 126.928 112.531 127.399 111.78C128.31 110.634 129.537 109.782 130.929 109.33C132.109 108.823 133.385 108.574 134.669 108.6C135.31 108.622 135.938 108.784 136.51 109.074C137.082 109.364 137.583 109.776 137.979 110.28C138.579 111.14 138.639 112.55 137.719 113.06C136.799 113.57 135.569 113.06 135.129 113.94C134.789 114.57 135.309 115.45 134.869 116.02C134.149 116.94 132.369 115.47 131.609 116.48C131.519 116.615 131.461 116.769 131.439 116.93C131.473 117.548 131.583 118.16 131.769 118.75C131.779 118.856 131.779 118.964 131.769 119.07C131.729 119.38 131.602 119.673 131.403 119.914C131.203 120.155 130.939 120.334 130.641 120.431C130.343 120.527 130.024 120.537 129.721 120.459C129.418 120.381 129.143 120.218 128.929 119.99C128.016 119.102 127.289 118.041 126.789 116.87Z" fill="#2F2E41"/>
<path d="M97.5992 46.38C97.5942 46.4666 97.5942 46.5534 97.5992 46.64L91.7392 51.56L89.9992 50.93L88.6992 53.44L92.5192 55.26L98.9392 48.07C99.2542 48.1259 99.5787 48.0872 99.8717 47.959C100.165 47.8307 100.413 47.6186 100.586 47.3493C100.759 47.08 100.848 46.7656 100.842 46.4458C100.836 46.1259 100.736 45.815 100.554 45.552C100.371 45.2891 100.115 45.0861 99.8179 44.9684C99.5204 44.8508 99.1948 44.8238 98.882 44.891C98.5693 44.9582 98.2834 45.1164 98.0605 45.3458C97.8375 45.5752 97.6875 45.8655 97.6292 46.18C97.6243 46.2466 97.6243 46.3134 97.6292 46.38H97.5992Z" fill="#A0616A"/>
<path d="M93 73.46H94.89L95.79 66.16H93V73.46Z" fill="#A0616A"/>
<path d="M98.5 75.21H92.5V72.92H96.2C96.8083 72.92 97.3918 73.1609 97.8228 73.5901C98.2539 74.0193 98.4974 74.6017 98.5 75.21Z" fill="#2F2E41"/>
<path d="M88.2812 71L89.8313 72.09L94.7613 66.64L92.4813 65L88.2812 71Z" fill="#A0616A"/>
<path d="M91.62 75.26L86.75 71.84L88.07 70L91.07 72.1C91.5658 72.4523 91.9027 72.9858 92.0075 73.5849C92.1124 74.184 91.9767 74.8003 91.63 75.3L91.62 75.26Z" fill="#2F2E41"/>
<path d="M97.0997 60.3C97.0997 60.3 101.82 59.75 100.97 62.81C100.12 65.87 90.6797 68.53 90.6797 68.53L97.0997 60.3Z" fill="#A0616A"/>
<path d="M93.8486 44.66C95.9418 44.66 97.6386 42.9632 97.6386 40.87C97.6386 38.7768 95.9418 37.08 93.8486 37.08C91.7554 37.08 90.0586 38.7768 90.0586 40.87C90.0586 42.9632 91.7554 44.66 93.8486 44.66Z" fill="#A0616A"/>
<path d="M81.7499 67.9C79.5899 65.38 78.8399 61.53 82.2799 58.32C83.1286 57.5492 84.0896 56.9119 85.1299 56.43L87.9099 48.67C88.1955 47.8596 88.7222 47.156 89.4194 46.6537C90.1166 46.1514 90.9507 45.8744 91.8099 45.86C92.6446 45.8246 93.47 46.0476 94.1733 46.4986C94.8766 46.9496 95.4237 47.6066 95.7399 48.38C96.0799 49.1686 96.119 50.0545 95.8499 50.87C95.0229 53.4399 93.9373 55.9192 92.6099 58.27L92.7499 59.42L99.7499 60.04L99.6899 60.15C97.4923 63.4171 94.8502 66.3621 91.8399 68.9C90.5698 69.9607 88.9744 70.5537 87.3199 70.58C86.2546 70.5534 85.2071 70.3008 84.2468 69.8387C83.2865 69.3767 82.4354 68.7159 81.7499 67.9Z" fill="#757575"/>
<path d="M81.0883 42.06C81.7042 41.2134 82.1119 40.2336 82.2783 39.2C82.5377 37.5652 83.0293 35.9758 83.7383 34.48C84.1114 33.734 84.6812 33.1041 85.3861 32.6583C86.0911 32.2124 86.9044 31.9675 87.7383 31.95C88.5531 32.066 89.3225 32.3966 89.9674 32.908C90.6123 33.4193 91.1096 34.093 91.4083 34.86C91.5745 34.7836 91.7553 34.7441 91.9383 34.7441C92.1212 34.7441 92.302 34.7836 92.4683 34.86C92.5883 34.9325 92.6917 35.0294 92.7718 35.1444C92.8519 35.2594 92.907 35.39 92.9334 35.5276C92.9598 35.6653 92.957 35.807 92.9251 35.9435C92.8932 36.08 92.833 36.2083 92.7483 36.32C93.1916 36.1084 93.6747 35.9928 94.1658 35.9807C94.6569 35.9687 95.1451 36.0604 95.5983 36.25C96.1826 36.4987 96.6869 36.9039 97.0556 37.4209C97.4244 37.9378 97.6433 38.5466 97.6883 39.18C97.7035 39.4365 97.6671 39.6935 97.5813 39.9357C97.4954 40.1779 97.3617 40.4004 97.1883 40.59C96.4583 41.34 95.4283 41.08 94.5183 40.89C93.6083 40.7 92.5983 40.66 92.1083 41.48C91.9194 41.8249 91.8659 42.2278 91.9583 42.61C92.2134 43.383 92.6983 44.0598 93.3483 44.55L93.4383 44.73C92.3893 44.9211 91.3067 44.7099 90.4065 44.1386C89.5062 43.5672 88.8542 42.6776 88.5805 41.6471C88.3068 40.6165 88.4314 39.5207 88.9295 38.5779C89.4276 37.6351 90.2627 36.9146 91.2683 36.56C91.0684 36.5654 90.8744 36.4918 90.7284 36.3552C90.5824 36.2185 90.4961 36.0298 90.4883 35.83C90.4856 35.6902 90.5201 35.5521 90.5883 35.43C90.0174 35.1242 89.3755 34.9758 88.7283 35C88.2103 35.0682 87.7157 35.2578 87.2848 35.5532C86.8539 35.8486 86.4987 36.2415 86.2483 36.7C85.7649 37.6188 85.4275 38.6073 85.2483 39.63C85.0553 40.6571 84.683 41.6421 84.1483 42.54C83.8125 43.0462 83.38 43.481 82.8757 43.8195C82.3713 44.158 81.805 44.3935 81.2094 44.5125C80.6137 44.6314 80.0004 44.6315 79.4047 44.5126C78.809 44.3938 78.2427 44.1584 77.7383 43.82C77.3618 43.5717 77.0247 43.2683 76.7383 42.92C77.4586 43.2674 78.2723 43.3714 79.0569 43.2163C79.8414 43.0612 80.5543 42.6554 81.0883 42.06Z" fill="#2F2E41"/>
<path d="M105.162 50.57C105.124 50.6448 105.091 50.7216 105.062 50.8L97.6616 52.8L96.3416 51.48L94.1016 53.17L96.7916 56.45L105.652 52.66C105.913 52.8458 106.223 52.9499 106.543 52.9594C106.863 52.9689 107.179 52.8832 107.451 52.7132C107.722 52.5431 107.937 52.2964 108.068 52.0042C108.2 51.712 108.242 51.3874 108.188 51.0715C108.135 50.7556 107.99 50.4625 107.77 50.2293C107.55 49.9961 107.267 49.8333 106.954 49.7614C106.642 49.6895 106.316 49.7118 106.016 49.8255C105.717 49.9392 105.457 50.1391 105.272 50.4C105.229 50.4528 105.192 50.5098 105.162 50.57Z" fill="#A0616A"/>
<path d="M94.5298 54.71L90.2698 50.45C90.0728 50.253 89.9165 50.0192 89.8099 49.7618C89.7033 49.5044 89.6484 49.2286 89.6484 48.95C89.6484 48.6714 89.7033 48.3956 89.8099 48.1382C89.9165 47.8808 90.0728 47.647 90.2698 47.45C90.4667 47.253 90.7006 47.0968 90.958 46.9902C91.2153 46.8835 91.4912 46.8287 91.7698 46.8287C92.0483 46.8287 92.3242 46.8835 92.5816 46.9902C92.8389 47.0968 93.0728 47.253 93.2698 47.45L97.5198 51.71C97.5888 51.7737 97.644 51.851 97.6817 51.937C97.7194 52.0231 97.7389 52.116 97.7389 52.21C97.7389 52.304 97.7194 52.3969 97.6817 52.483C97.644 52.569 97.5888 52.6463 97.5198 52.71L95.5198 54.71C95.4553 54.7778 95.3777 54.8317 95.2918 54.8686C95.2058 54.9055 95.1133 54.9245 95.0198 54.9245C94.9262 54.9245 94.8337 54.9055 94.7477 54.8686C94.6618 54.8317 94.5842 54.7778 94.5198 54.71H94.5298Z" fill="#757575"/>
<path d="M1276.1 117.62C1276.05 117.037 1276.23 116.458 1276.61 116.009C1276.98 115.559 1277.52 115.276 1278.1 115.22C1278.23 115.205 1278.36 115.205 1278.49 115.22L1281.78 108.04L1283.95 111.52L1280.5 117.8C1280.42 118.344 1280.14 118.838 1279.71 119.187C1279.29 119.536 1278.75 119.717 1278.2 119.693C1277.65 119.67 1277.13 119.444 1276.74 119.059C1276.34 118.675 1276.11 118.159 1276.07 117.61L1276.1 117.62Z" fill="#FFB8B8"/>
<path d="M1281.29 115.93C1281.08 115.93 1280.89 115.867 1280.72 115.75L1279.17 114.68C1279 114.563 1278.88 114.397 1278.81 114.206C1278.74 114.015 1278.73 113.807 1278.78 113.61L1280.6 106.72L1278.4 93.93C1278.4 93.0813 1278.74 92.2674 1279.34 91.6673C1279.94 91.0671 1280.75 90.73 1281.6 90.73C1282.45 90.73 1283.26 91.0671 1283.86 91.6673C1284.46 92.2674 1284.8 93.0813 1284.8 93.93L1286.61 101.93C1287.16 104.352 1286.8 106.891 1285.61 109.07L1282.15 115.46C1282.08 115.584 1281.99 115.692 1281.88 115.777C1281.77 115.862 1281.64 115.921 1281.51 115.95C1281.43 115.953 1281.36 115.946 1281.29 115.93Z" fill="#3F3D56"/>
<path d="M1250.5 92.51C1251.05 92.3051 1251.67 92.3267 1252.2 92.5701C1252.74 92.8135 1253.16 93.2591 1253.37 93.81C1253.41 93.9306 1253.45 94.0543 1253.47 94.18L1261.27 95.37L1258.53 98.37L1251.53 96.77C1250.99 96.8251 1250.45 96.6814 1250.01 96.3658C1249.57 96.0501 1249.25 95.5843 1249.13 95.0555C1249.01 94.5268 1249.08 93.9715 1249.34 93.4936C1249.6 93.0158 1250.02 92.6483 1250.53 92.46L1250.5 92.51Z" fill="#FFB8B8"/>
<path d="M1254.5 97.28C1254.44 97.0878 1254.44 96.8822 1254.5 96.69L1255.11 94.9C1255.18 94.708 1255.3 94.5411 1255.47 94.4214C1255.63 94.3016 1255.83 94.2349 1256.03 94.23L1263.15 94.09L1274.85 88.46C1275.67 88.224 1276.54 88.3216 1277.29 88.7313C1278.03 89.1411 1278.58 89.8295 1278.82 90.645C1279.05 91.4605 1278.96 92.3364 1278.55 93.08C1278.14 93.8236 1277.45 94.374 1276.63 94.61L1269.46 98.54C1267.28 99.727 1264.74 100.082 1262.32 99.54L1255.24 98C1255.11 97.9696 1254.98 97.9112 1254.87 97.8286C1254.75 97.7459 1254.66 97.6408 1254.59 97.52C1254.55 97.445 1254.52 97.3641 1254.5 97.28Z" fill="#3F3D56"/>
<path d="M1277.56 86.2C1280.56 86.2 1282.99 83.7689 1282.99 80.77C1282.99 77.7711 1280.56 75.34 1277.56 75.34C1274.56 75.34 1272.13 77.7711 1272.13 80.77C1272.13 83.7689 1274.56 86.2 1277.56 86.2Z" fill="#FFB8B8"/>
<path d="M1275.36 151.94H1272.65L1271.37 141.5H1275.36V151.94Z" fill="#FFB8B8"/>
<path d="M1270.72 151.17H1275.94V154.46H1267.43C1267.43 153.587 1267.78 152.751 1268.39 152.134C1269.01 151.517 1269.85 151.17 1270.72 151.17Z" fill="#2F2E41"/>
<path d="M1284.2 149.04H1281.49L1280.2 138.59H1284.2V149.04Z" fill="#FFB8B8"/>
<path d="M1279.56 148.26H1284.78V151.55H1276.27C1276.27 150.677 1276.62 149.841 1277.23 149.224C1277.85 148.607 1278.69 148.26 1279.56 148.26Z" fill="#2F2E41"/>
<path d="M1284.4 145.42H1281.22C1280.99 145.428 1280.77 145.359 1280.59 145.224C1280.41 145.09 1280.28 144.898 1280.22 144.68L1275.65 131.61C1275.64 131.582 1275.62 131.559 1275.6 131.544C1275.58 131.529 1275.55 131.524 1275.52 131.53C1275.49 131.539 1275.47 131.555 1275.46 131.577C1275.44 131.598 1275.44 131.624 1275.44 131.65L1276.36 147.72C1276.37 147.984 1276.28 148.242 1276.1 148.439C1275.93 148.635 1275.68 148.755 1275.42 148.77H1275.28L1271.72 148.48C1271.49 148.461 1271.27 148.363 1271.11 148.202C1270.94 148.042 1270.84 147.829 1270.81 147.6L1267.56 113.86L1268.82 114.61L1280.6 112.61L1285.34 144.3C1285.37 144.561 1285.3 144.825 1285.14 145.035C1284.98 145.244 1284.75 145.383 1284.49 145.42H1284.4Z" fill="#757575"/>
<path d="M1271.54 117.41C1270.25 117.412 1268.98 117.067 1267.86 116.41C1267.69 116.309 1267.55 116.161 1267.47 115.983C1267.38 115.805 1267.35 115.605 1267.38 115.41C1267.8 112.87 1269.97 99.86 1271.94 92.76C1272.74 89.87 1274.51 88.31 1277.21 88.13C1279.14 88.051 1281.03 88.7213 1282.49 90.0012C1283.94 91.2811 1284.84 93.0718 1285 95C1285.65 102.16 1283 112.35 1281.88 116.39C1281.81 116.644 1281.64 116.859 1281.41 116.989C1281.18 117.118 1280.91 117.151 1280.65 117.08C1280.52 117.08 1279.08 117.34 1278.37 117.43C1276.1 117.588 1273.81 117.582 1271.54 117.41Z" fill="#3F3D56"/>
<path opacity="0.2" d="M1276.64 94.61L1270.23 100.01L1270.67 97.88L1276.64 94.61Z" fill="black"/>
<path opacity="0.2" d="M1284.84 96.92L1284.78 107.42L1282.59 113.87L1283.88 107.35L1284.84 96.92Z" fill="black"/>
<path d="M1280.66 85.23C1281.14 85.2388 1281.62 85.1503 1282.07 84.97C1282.27 84.9 1282.47 84.84 1282.67 84.76C1283.53 84.3883 1284.26 83.7762 1284.78 82.9974C1285.3 82.2186 1285.59 81.3062 1285.6 80.37C1285.59 79.4343 1285.37 78.5122 1284.97 77.6701C1284.56 76.828 1283.97 76.0868 1283.24 75.5C1281.77 74.3144 1279.97 73.6155 1278.08 73.5C1276.08 73.34 1273.82 73.85 1272.7 75.5C1272.53 75.7108 1272.41 75.9576 1272.36 76.2213C1272.3 76.485 1272.3 76.7583 1272.37 77.02C1272.42 77.1834 1272.52 77.3288 1272.65 77.44C1273.15 77.89 1273.65 77.55 1274.15 77.52C1274.5 77.529 1274.84 77.6501 1275.13 77.8658C1275.41 78.0814 1275.61 78.3806 1275.71 78.72C1275.91 79.3949 1275.91 80.1151 1275.71 80.79C1275.57 81.1978 1275.48 81.6208 1275.44 82.05C1275.42 82.2664 1275.47 82.483 1275.56 82.679C1275.65 82.8751 1275.79 83.0441 1275.97 83.17C1276.2 83.2732 1276.46 83.3137 1276.71 83.2874C1276.97 83.2611 1277.21 83.1689 1277.42 83.02C1277.83 82.7087 1278.26 82.4311 1278.71 82.19C1278.94 82.0764 1279.2 82.0422 1279.45 82.0929C1279.7 82.1436 1279.93 82.2762 1280.1 82.47C1280.18 82.6305 1280.24 82.8025 1280.27 82.98C1280.52 84.1 1280.46 83.98 1280.71 85.16L1280.66 85.23Z" fill="#2F2E41"/>
<path d="M924.93 139.27L949.89 124.86L974.85 139.27L949.89 153.68L924.93 139.27Z" fill="#F6E5E5"/>
<path d="M949.891 182.5V153.68L974.851 139.27V168.09L949.891 182.5Z" fill="#6D0F3F"/>
<path d="M949.89 182.5V153.68L924.93 139.27V168.09L949.89 182.5Z" fill="#A36F8A"/>
<path d="M956.891 157.25L981.861 142.84L1006.81 157.25L981.851 171.66L956.891 157.25Z" fill="#F6E5E5"/>
<path d="M981.852 200.48V171.66L1006.81 157.25V186.07L981.852 200.48Z" fill="#6D0F3F"/>
<path d="M981.851 200.48V171.66L956.891 157.25V186.07L981.851 200.48Z" fill="#A36F8A"/>
<path opacity="0.3" d="M1139.11 56.76L1151.29 49.72L1163.48 56.76L1151.29 63.79L1139.11 56.76Z" fill="#6D0F3F"/>
<path d="M774.491 95.5C783.758 95.5 791.271 80.1658 791.271 61.25C791.271 42.3342 783.758 27 774.491 27C765.224 27 757.711 42.3342 757.711 61.25C757.711 80.1658 765.224 95.5 774.491 95.5Z" fill="#E9E9E9"/>
<path d="M772.309 36.5C776.335 63.0519 776.375 90.0561 772.429 116.62" stroke="#AEAEAE" stroke-miterlimit="10" stroke-linecap="round"/>
<path d="M787.929 61.96L775.359 70.3" stroke="#AEAEAE" stroke-miterlimit="10" stroke-linecap="round"/>
<path d="M763.059 52.29L774.939 61.96" stroke="#AEAEAE" stroke-miterlimit="10" stroke-linecap="round"/>
<path d="M754.08 107.69C761.768 107.69 768 94.9749 768 79.29C768 63.6051 761.768 50.89 754.08 50.89C746.392 50.89 740.16 63.6051 740.16 79.29C740.16 94.9749 746.392 107.69 754.08 107.69Z" fill="#808080"/>
<path d="M751.828 58.07C755.246 80.6489 755.279 103.611 751.928 126.2" stroke="#E9E9E9" stroke-miterlimit="10" stroke-linecap="round"/>
<path d="M766.012 80.97L754.422 86.82" stroke="#E9E9E9" stroke-miterlimit="10" stroke-linecap="round"/>
<path d="M743.281 73.93L754.071 79.72" stroke="#E9E9E9" stroke-miterlimit="10" stroke-linecap="round"/>
<path d="M957.77 44.88C957.77 36.62 964.46 17.02 972.77 17.02C981.08 17.02 987.77 36.62 987.77 44.88C987.477 48.6459 985.775 52.1629 983.002 54.7284C980.23 57.2939 976.592 58.719 972.815 58.719C969.037 58.719 965.399 57.2939 962.627 54.7284C959.854 52.1629 958.152 48.6459 957.859 44.88H957.77Z" fill="#E9E9E9"/>
<path d="M973.172 81.27V49.78V29.46" stroke="#AEAEAE" stroke-width="0.75" stroke-miterlimit="10" stroke-linecap="round"/>
<path d="M983.6 39.62L973.18 49.79" stroke="#AEAEAE" stroke-width="0.75" stroke-miterlimit="10" stroke-linecap="round"/>
<path d="M968.039 33.37L973.129 38.46" stroke="#AEAEAE" stroke-width="0.75" stroke-miterlimit="10" stroke-linecap="round"/>
<path d="M978.089 75.25C978.625 75.4384 979.2 75.4849 979.759 75.385C980.318 75.2851 980.842 75.0422 981.279 74.68C982.399 73.75 982.749 72.2 983.029 70.77L983.879 66.53L982.109 67.75C980.79 68.5368 979.622 69.5527 978.659 70.75C978.188 71.364 977.889 72.0924 977.792 72.8604C977.695 73.6284 977.805 74.4083 978.109 75.12" fill="#AEAEAE"/>
<path d="M978.36 80.67C978.073 79.0534 977.976 77.4091 978.07 75.77C978.176 74.3238 978.689 72.9371 979.55 71.77C980.031 71.1568 980.612 70.6294 981.27 70.21C981.287 70.1942 981.308 70.1825 981.331 70.1757C981.353 70.169 981.377 70.1673 981.401 70.1709C981.424 70.1745 981.446 70.1833 981.466 70.1965C981.486 70.2097 981.502 70.2272 981.514 70.2475C981.526 70.2679 981.534 70.2906 981.536 70.3142C981.538 70.3378 981.535 70.3615 981.527 70.3837C981.519 70.406 981.506 70.4261 981.489 70.4428C981.472 70.4594 981.452 70.4721 981.43 70.48C980.298 71.1935 979.417 72.2422 978.91 73.48C978.408 74.8925 978.22 76.3975 978.36 77.89C978.42 78.79 978.54 79.68 978.66 80.57C978.666 80.5904 978.668 80.6117 978.665 80.6328C978.663 80.654 978.657 80.6744 978.646 80.6931C978.636 80.7117 978.622 80.7281 978.606 80.7413C978.589 80.7545 978.57 80.7643 978.55 80.77C978.51 80.7794 978.468 80.7732 978.433 80.7527C978.397 80.7323 978.371 80.6991 978.36 80.66V80.67Z" fill="#E9E9E9"/>
<path d="M980 78.07C980.23 78.4185 980.546 78.7019 980.917 78.8928C981.289 79.0837 981.703 79.1758 982.12 79.16C983.187 78.9824 984.163 78.4504 984.89 77.65L987.28 75.55L985.7 75.47C984.567 75.352 983.423 75.4367 982.32 75.72C981.765 75.8589 981.258 76.1435 980.85 76.5444C980.442 76.9452 980.149 77.4478 980 78" fill="#AEAEAE"/>
<path d="M977.732 81.6C978.802 79.71 980.042 77.6 982.262 76.93C982.879 76.7405 983.528 76.6726 984.172 76.73C984.372 76.73 984.322 77.06 984.172 77.04C983.109 76.9604 982.05 77.2462 981.172 77.85C980.303 78.4446 979.564 79.2102 979.002 80.1C978.652 80.63 978.342 81.18 978.002 81.73C977.922 81.9 977.632 81.78 977.732 81.6Z" fill="#E9E9E9"/>
<path d="M1315.19 133.74H1308.55C1307.55 133.74 1307.07 132.95 1306.76 131.95C1306.38 130.654 1306.1 129.334 1305.9 128C1305.47 125.316 1305.35 122.592 1305.53 119.88H1318.21C1318.34 122.375 1318.23 124.876 1317.89 127.35C1317.75 128.911 1317.45 130.454 1316.98 131.95C1316.63 132.88 1316.15 133.82 1315.19 133.74Z" fill="#808080"/>
<path d="M1311.89 121.19C1315.41 121.19 1318.26 120.603 1318.26 119.88C1318.26 119.157 1315.41 118.57 1311.89 118.57C1308.37 118.57 1305.52 119.157 1305.52 119.88C1305.52 120.603 1308.37 121.19 1311.89 121.19Z" fill="#3F3D56"/>
<path d="M1316.9 100.62C1316.9 100.62 1323.9 97.52 1324.96 91.94C1325.44 89.38 1326.32 85.94 1322.52 84.76C1319.05 83.65 1315.89 85.85 1314.71 90.64C1313.39 96 1316.9 100.62 1316.9 100.62Z" fill="#D0D0D0"/>
<path d="M1316.39 114.46C1316.39 114.46 1321.49 115.31 1324.39 112.46C1325.7 111.14 1327.57 109.46 1325.99 107.31C1324.55 105.31 1321.92 105.43 1319.32 107.8C1317.52 109.559 1316.47 111.945 1316.39 114.46Z" fill="#D0D0D0"/>
<path d="M1320.79 85.55C1319.34 90.62 1317.96 96.01 1316.7 101.71C1315.21 108.45 1314.13 114.38 1313.23 120.44" stroke="#AEAEAE" stroke-width="0.75" stroke-miterlimit="10" stroke-linecap="round"/>
<path d="M1322.66 108.22C1320.89 111.873 1317.75 114.682 1313.93 116.04" stroke="#AEAEAE" stroke-width="0.75" stroke-miterlimit="10" stroke-linecap="round"/>
<path d="M1307.71 115.07C1307.71 115.07 1302.2 115.59 1299.09 112.12C1297.66 110.54 1295.62 108.51 1297.32 106.22C1298.87 104.14 1302.32 105.53 1304.54 107.33C1308.08 110.12 1307.71 115.07 1307.71 115.07Z" fill="#D0D0D0"/>
<path d="M1308.25 106.3C1308.25 106.3 1301.74 103.3 1300.76 97.89C1300.31 95.42 1299.49 92.12 1303.02 90.89C1306.24 89.82 1309.19 91.95 1310.28 96.58C1311.51 101.86 1308.25 106.3 1308.25 106.3Z" fill="#D0D0D0"/>
<path d="M1310.86 111.42C1310.86 111.42 1315.71 110.54 1317.39 106.98C1318.16 105.35 1319.33 103.22 1317.24 101.76C1315.33 100.43 1312.98 101.37 1311.38 104.38C1310.32 106.575 1310.13 109.093 1310.86 111.42Z" fill="#D0D0D0"/>
<path d="M1310.79 120.53C1310.41 111.684 1308.41 102.984 1304.89 94.86" stroke="#AEAEAE" stroke-width="0.75" stroke-miterlimit="10" stroke-linecap="round"/>
<path d="M1300.34 109.62C1301.61 111.074 1303.03 112.397 1304.56 113.57C1306.39 114.967 1308.39 116.135 1310.5 117.05" stroke="#AEAEAE" stroke-width="0.75" stroke-miterlimit="10" stroke-linecap="round"/>
<path d="M1316.3 103.72L1310.03 112.71" stroke="#AEAEAE" stroke-width="0.75" stroke-miterlimit="10" stroke-linecap="round"/>
<path d="M1311.89 134.18C1314.2 134.18 1316.07 133.795 1316.07 133.32C1316.07 132.845 1314.2 132.46 1311.89 132.46C1309.58 132.46 1307.71 132.845 1307.71 133.32C1307.71 133.795 1309.58 134.18 1311.89 134.18Z" fill="#808080"/>
<g opacity="0.5">
<path opacity="0.5" d="M1155.9 181.77L1177.1 194L1198.3 181.77L1177.1 169.53L1155.9 181.77Z" stroke="#6D0F3F" stroke-linecap="round" stroke-linejoin="round"/>
<path opacity="0.5" d="M1187.66 187.91L1240.45 218.26L1323.85 169.94" stroke="#6D0F3F" stroke-linecap="round" stroke-linejoin="round" stroke-dasharray="2.93 2.93"/>
<path opacity="0.5" d="M1313.43 163.93L1334.63 176.17L1355.83 163.93L1334.63 151.69L1313.43 163.93Z" stroke="#6D0F3F" stroke-linecap="round" stroke-linejoin="round"/>
</g>
<path d="M1206.13 150.99H1207.86L1208.68 144.34H1206.13V150.99Z" fill="#9E616A"/>
<path d="M1205.69 150.42H1209.09C1209.67 150.423 1210.21 150.652 1210.62 151.059C1211.02 151.466 1211.25 152.016 1211.25 152.59V152.66H1205.69V150.42Z" fill="#2F2E41"/>
<path d="M1221.8 154.5H1223.53L1224.35 147.85H1221.8V154.5Z" fill="#9E616A"/>
<path d="M1221.36 153.94H1224.76C1225.33 153.94 1225.88 154.168 1226.29 154.573C1226.69 154.978 1226.92 155.527 1226.92 156.1V156.17H1221.36V153.94Z" fill="#2F2E41"/>
<path d="M1219.72 101.09L1220.85 108.26L1210.16 108.4L1211.57 101.51L1219.72 101.09Z" fill="#9E616A"/>
<path d="M1220.54 106.51L1223.94 115.57L1224.36 153.12H1221.48L1215.56 124.89L1208.48 148.82H1205.67L1207.42 119.3C1207.42 119.3 1206.84 112.66 1209.81 108.75L1210.53 106.66L1220.54 106.51Z" fill="#757575"/>
<path d="M1205.94 113.57C1206.21 113.498 1206.46 113.374 1206.68 113.205C1206.9 113.035 1207.08 112.824 1207.22 112.583C1207.36 112.343 1207.44 112.077 1207.48 111.802C1207.51 111.527 1207.49 111.247 1207.42 110.98C1207.38 110.86 1207.34 110.743 1207.29 110.63L1211.84 95.81L1208.49 95.15L1204.34 109.68C1203.89 109.935 1203.55 110.345 1203.38 110.832C1203.21 111.32 1203.23 111.853 1203.42 112.33C1203.62 112.807 1203.98 113.196 1204.45 113.425C1204.91 113.653 1205.44 113.705 1205.94 113.57Z" fill="#9E616A"/>
<path d="M1211.93 105.05H1211.75C1211.55 105.003 1211.37 104.894 1211.23 104.738C1211.09 104.582 1211 104.387 1210.98 104.18C1210.66 101.646 1210.14 99.1422 1209.42 96.69C1209.11 95.4932 1209.18 94.229 1209.62 93.0742C1210.07 91.9194 1210.86 90.9318 1211.89 90.2496C1212.92 89.5675 1214.14 89.2248 1215.38 89.2697C1216.61 89.3146 1217.8 89.7448 1218.78 90.5C1219.41 90.9805 1219.93 91.5824 1220.32 92.2697C1220.71 92.957 1220.95 93.7156 1221.04 94.5C1221.32 97.7559 1221.05 101.036 1220.23 104.2C1220.18 104.402 1220.06 104.58 1219.89 104.711C1219.73 104.842 1219.53 104.919 1219.32 104.93L1211.95 105.07L1211.93 105.05Z" fill="#3F3D56"/>
<path d="M1232.51 92C1232.47 92.1011 1232.43 92.2046 1232.4 92.31L1223.18 95.44L1221.4 93.88L1218.7 96.27L1221.59 99.33C1221.82 99.5764 1222.13 99.7406 1222.47 99.7982C1222.8 99.8559 1223.15 99.8039 1223.45 99.65L1233.31 94.65C1233.66 94.862 1234.06 94.9664 1234.47 94.9499C1234.87 94.9335 1235.27 94.7969 1235.59 94.5575C1235.92 94.3181 1236.17 93.9865 1236.32 93.6046C1236.46 93.2228 1236.48 92.8078 1236.39 92.412C1236.29 92.0161 1236.08 91.6573 1235.78 91.3806C1235.48 91.104 1235.11 90.922 1234.71 90.8576C1234.31 90.7932 1233.89 90.8493 1233.52 91.0188C1233.15 91.1883 1232.84 91.4636 1232.63 91.81L1232.51 92.04V92Z" fill="#9E616A"/>
<path d="M1222.86 95.64L1219.5 98.58C1219.41 98.6567 1219.31 98.7152 1219.2 98.7522C1219.09 98.7893 1218.97 98.804 1218.86 98.7956C1218.74 98.7873 1218.63 98.7559 1218.53 98.7034C1218.42 98.6509 1218.33 98.5784 1218.26 98.49C1218.23 98.4613 1218.2 98.4275 1218.18 98.39L1215.77 94.65C1215.54 94.4099 1215.35 94.1248 1215.24 93.8122C1215.12 93.4995 1215.06 93.1659 1215.08 92.8317C1215.09 92.4975 1215.17 92.1698 1215.32 91.8685C1215.46 91.5672 1215.67 91.2988 1215.92 91.0795C1216.17 90.8603 1216.47 90.6948 1216.79 90.5933C1217.11 90.4918 1217.44 90.4564 1217.78 90.4892C1218.11 90.522 1218.43 90.6224 1218.72 90.7841C1219.02 90.9459 1219.27 91.1657 1219.48 91.43L1222.85 94.3C1222.94 94.375 1223.01 94.467 1223.06 94.5707C1223.12 94.6744 1223.15 94.7877 1223.16 94.9041C1223.17 95.0204 1223.16 95.1374 1223.12 95.2483C1223.08 95.3592 1223.02 95.4618 1222.95 95.55C1222.92 95.5849 1222.89 95.6153 1222.86 95.64Z" fill="#3F3D56"/>
<path d="M1211.31 99.61L1207.15 98C1206.93 97.9131 1206.76 97.7434 1206.66 97.528C1206.57 97.3126 1206.57 97.0689 1206.65 96.85L1206.71 96.73L1208.92 92.88C1209.18 92.3103 1209.66 91.8629 1210.24 91.6294C1210.82 91.3958 1211.47 91.3939 1212.05 91.624C1212.64 91.854 1213.11 92.2986 1213.38 92.8668C1213.65 93.4349 1213.69 94.0836 1213.49 94.68L1212.49 99C1212.44 99.229 1212.3 99.4279 1212.1 99.5534C1211.9 99.6789 1211.66 99.7208 1211.43 99.67H1211.31V99.61Z" fill="#3F3D56"/>
<path d="M1214.38 88.34C1216.88 88.34 1218.9 86.3163 1218.9 83.82C1218.9 81.3237 1216.88 79.3 1214.38 79.3C1211.88 79.3 1209.86 81.3237 1209.86 83.82C1209.86 86.3163 1211.88 88.34 1214.38 88.34Z" fill="#9E616A"/>
<path d="M1217.49 82H1220.4C1220.43 81.3281 1220.2 80.6704 1219.75 80.17C1219.3 79.6832 1218.78 79.2594 1218.22 78.91C1217.69 78.4861 1217.07 78.1763 1216.42 78C1215.86 77.9102 1215.29 77.9102 1214.74 78L1212.51 78.31C1211.68 78.363 1210.89 78.6134 1210.18 79.04C1209.36 79.8087 1208.83 80.8301 1208.66 81.94L1207.06 87.94L1216.47 88.94C1216.8 89.0071 1217.14 89.0071 1217.47 88.94C1217.64 88.8981 1217.79 88.8087 1217.9 88.6827C1218.02 88.5567 1218.1 88.3995 1218.13 88.23C1218.08 87.8424 1217.89 87.4859 1217.6 87.23C1217.01 86.4988 1216.66 85.6071 1216.59 84.6719C1216.52 83.7368 1216.73 82.8019 1217.2 81.99L1217.49 82Z" fill="#2F2E41"/>
</svg>
